<?xml version="1.0" encoding="UTF-8"?>
<svg width="13px" height="14px" viewBox="0 0 13 14" version="1.1" xmlns="http://www.w3.org/2000/svg" xmlns:xlink="http://www.w3.org/1999/xlink">
    <!-- Generator: Sketch 48.2 (47327) - http://www.bohemiancoding.com/sketch -->
    <title>邮箱</title>
    <desc>Created with Sketch.</desc>
    <defs>
        <polygon id="path-1" points="6.47184474 13.9564667 0 13.9564667 0 -0.000199999999 6.47184474 -0.000199999999 12.9436895 -0.000199999999 12.9436895 13.9564667 6.47184474 13.9564667"></polygon>
    </defs>
    <g id="登陆" stroke="none" stroke-width="1" fill="none" fill-rule="evenodd" transform="translate(-962.000000, -337.000000)" opacity="0.949999988">
        <g id="Group" transform="translate(900.000000, 171.000000)">
            <g id="邮箱" transform="translate(62.000000, 166.000000)">
                <mask id="mask-2" fill="white">
                    <use xlink:href="#path-1"></use>
                </mask>
                <g id="Clip-2"></g>
                <path d="M12.5071632,12.8604667 L7.38858421,12.8604667 C7.14774211,12.8604667 6.95205789,13.0564667 6.95205789,13.2991333 C6.95205789,13.5411333 7.14774211,13.7371333 7.38858421,13.7371333 L12.5071632,13.7371333 C12.7486895,13.7371333 12.9436895,13.5411333 12.9436895,13.2991333 C12.9436895,13.0564667 12.7486895,12.8604667 12.5071632,12.8604667 M12.5071632,10.8484667 L7.38858421,10.8484667 C7.14774211,10.8484667 6.95205789,11.0444667 6.95205789,11.2871333 C6.95205789,11.5291333 7.14774211,11.7258 7.38858421,11.7258 L12.5071632,11.7258 C12.7486895,11.7258 12.9436895,11.5291333 12.9436895,11.2871333 C12.9436895,11.0444667 12.7486895,10.8484667 12.5071632,10.8484667 M6.95205789,9.4938 C6.95205789,9.7358 7.14774211,9.93246667 7.38858421,9.93246667 L12.5071632,9.93246667 C12.7486895,9.93246667 12.9436895,9.7358 12.9436895,9.4938 C12.9436895,9.2518 12.7486895,9.0558 12.5071632,9.0558 L7.38858421,9.0558 C7.14774211,9.0558 6.95205789,9.2518 6.95205789,9.4938 M6.11458421,7.20313333 C4.37737368,7.20313333 2.96447895,5.78446667 2.96447895,4.0398 C2.96447895,2.2958 4.37737368,0.877133333 6.11458421,0.877133333 C7.85179474,0.877133333 9.26537368,2.2958 9.26537368,4.0398 C9.26537368,5.78446667 7.85179474,7.20313333 6.11458421,7.20313333 M10.1384263,4.0398 C10.1384263,1.81246667 8.33347895,-0.000199999999 6.11458421,-0.000199999999 C3.89637368,-0.000199999999 2.09074211,1.81246667 2.09074211,4.0398 C2.09074211,5.55913333 2.93095263,6.8838 4.16868947,7.5738 C1.74111053,8.44913333 -0.000205263158,10.7831333 -0.000205263158,13.5178 C-0.000205263158,13.7598 0.195478947,13.9564667 0.436321053,13.9564667 C0.677847368,13.9564667 0.872847368,13.7604667 0.872847368,13.5178 C0.872847368,10.5198 3.30247895,8.0798 6.28905789,8.0798 C6.32532105,8.0798 6.3609,8.07446667 6.39442632,8.0658 C8.48263684,7.92046667 10.1384263,6.17313333 10.1384263,4.04046667" id="Fill-1" fill="#96ABB5" mask="url(#mask-2)"></path>
            </g>
        </g>
    </g>
</svg>