<?xml version="1.0" encoding="UTF-8"?>
<svg width="13px" height="16px" viewBox="0 0 13 16" version="1.1" xmlns="http://www.w3.org/2000/svg" xmlns:xlink="http://www.w3.org/1999/xlink">
    <!-- Generator: Sketch 48.2 (47327) - http://www.bohemiancoding.com/sketch -->
    <title>密码</title>
    <desc>Created with Sketch.</desc>
    <defs></defs>
    <g id="登陆" stroke="none" stroke-width="1" fill="none" fill-rule="evenodd" transform="translate(-962.000000, -408.000000)" opacity="0.949999988">
        <g id="Group" transform="translate(900.000000, 171.000000)" fill="#96ABB5">
            <g id="密码" transform="translate(62.000000, 237.000000)">
                <path d="M6.12437222,8.66385455 C5.61376111,8.66385455 5.19920556,9.09367273 5.19920556,9.62458182 C5.19920556,9.97949091 5.38626111,10.2893091 5.66215,10.4558545 L5.66215,12.0245818 C5.66215,12.2893091 5.86870556,12.5053091 6.12437222,12.5053091 C6.37931667,12.5053091 6.58659444,12.2893091 6.58659444,12.0245818 L6.58659444,10.4565818 C6.86248333,10.2900364 7.04881667,9.98021818 7.04881667,9.62458182 C7.04809444,9.0944 6.63426111,8.66385455 6.12437222,8.66385455 M11.6493722,7.80349091 L11.6493722,13.3373091 C11.6493722,14.1780364 10.9950389,14.8616727 10.1919278,14.8616727 L2.19765,14.8616727 C1.39381667,14.8616727 0.740205556,14.1780364 0.740205556,13.3373091 L0.740205556,7.80349091 C0.740205556,6.96349091 1.39381667,6.27985455 2.19765,6.27985455 L2.96031667,6.27985455 L2.96031667,6.25803636 L9.42853889,6.25803636 L9.42853889,6.27985455 L10.1912056,6.27985455 C10.9950389,6.27985455 11.6493722,6.96349091 11.6493722,7.80349091 M6.17781667,0.745309091 C8.06065,0.745309091 9.42853889,2.19767273 9.42853889,4.1984 L9.42853889,5.61658182 L2.96031667,5.61658182 L2.96031667,4.1984 C2.96031667,2.19767273 4.31376111,0.745309091 6.17781667,0.745309091 M2.32259444,4.1984 L2.32259444,5.63767273 L2.19765,5.63767273 C1.04209444,5.63767273 0.102483333,6.60930909 0.102483333,7.80349091 L0.102483333,13.3373091 C0.102483333,14.5314909 1.04209444,15.5038545 2.19765,15.5038545 L10.1912056,15.5038545 C11.3460389,15.5038545 12.2863722,14.5314909 12.2863722,13.3373091 L12.2863722,7.80349091 C12.2863722,6.60930909 11.3460389,5.63767273 10.1912056,5.63767273 L10.1218722,5.63767273 C10.1038167,5.6304 10.0850389,5.62894545 10.0655389,5.62530909 L10.0655389,4.19767273 C10.0662611,1.86385455 8.39503889,0.103127273 6.17781667,0.103127273 C3.98009444,0.103127273 2.32259444,1.86385455 2.32259444,4.1984 Z" id="Fill-4"></path>
            </g>
        </g>
    </g>
</svg>